<svg width="93" height="93" viewBox="0 0 93 93" fill="none" xmlns="http://www.w3.org/2000/svg">
<rect x="20" y="20" width="54" height="54" rx="27" stroke="white" stroke-width="2"/>
<path d="M45.0052 46L42.0072 45C41.9911 44.8643 42.0072 45.2564 42.0072 45C42.0072 43.6878 43.0212 41.92 44.0059 41C44.9906 40.0648 46.3567 40 48.0033 40C49.6337 40 50.049 40.1252 51.0013 41C51.9537 41.8597 53 43.733 53 45C53 46.8552 51.9713 47.8386 50.002 49L47.0039 51C45.8901 51.6637 45.1667 52.2911 45.0052 53H53V55H42.0072C42.0395 53.7632 42.4416 52.9352 43.0065 52C43.5876 51.0648 44.697 49.7843 46.0046 49L48.0033 48C49.4399 47.1403 51.0013 46.1765 51.0013 45C51.0013 44.276 50.5185 43.4977 50.002 43C49.4855 42.5023 48.9396 42 48.0033 42C47.0186 42 45.5218 42.442 45.0052 43C44.4887 43.558 45.0052 44.1101 45.0052 45C45.0052 45.1357 44.973 45.6983 45.0052 46Z" fill="white"/>
</svg>
