<svg width="93" height="93" viewBox="0 0 93 93" fill="none" xmlns="http://www.w3.org/2000/svg">
<rect x="20" y="20" width="54" height="54" rx="27" stroke="white" stroke-width="2"/>
<path d="M45 48L44 46L49 42H41V40H52V42L47 46C48.2172 46 50.0756 46.2168 51 47C51.9399 47.7831 52 48.5994 52 50C52 51.2951 51.9706 53.0813 51 54C50.0294 54.9186 48.6793 55 47 55C45.3516 55 44.0014 54.8885 43 54C42.014 53.0964 41.0771 51.2801 41 50H43C43.0462 50.9488 43.3838 51.4127 44 52C44.6317 52.5722 46.0756 53 47 53C47.9861 53 48.4454 52.512 49 52C49.5701 51.4729 50 50.7681 50 50C50 49.1114 49.6008 48.4668 49 48C48.3992 47.5331 47.8319 48 47 48C46.5533 48 45.4314 47.8493 45 48Z" fill="white"/>
</svg>
