<svg width="57" height="55" viewBox="0 0 57 55" fill="none" xmlns="http://www.w3.org/2000/svg">
<path d="M40.4171 53.73C46.2711 50.9561 50.9821 46.2382 53.7475 40.3802C56.5129 34.5222 57.1616 27.8865 55.583 21.6038C54.0045 15.3212 50.2963 9.78022 45.0903 5.92509C39.8844 2.06997 33.5028 0.139203 27.0329 0.461768C20.563 0.784333 14.4051 3.34027 9.60838 7.69409C4.8117 12.0479 1.67304 17.9302 0.727191 24.3387C-0.21866 30.7473 1.08682 37.2855 4.42119 42.8394C7.75556 48.3933 12.9125 52.6192 19.0134 54.7971L28.4271 28.427L40.4171 53.73Z" fill="url(#paint0_linear_1_1580)"/>
<defs>
<linearGradient id="paint0_linear_1_1580" x1="33.5183" y1="55.9753" x2="30.1893" y2="0.498228" gradientUnits="userSpaceOnUse">
<stop stop-color="#7A87FB"/>
<stop offset="1" stop-color="#FFD49C"/>
</linearGradient>
</defs>
</svg>
