<svg width="54" height="56" viewBox="0 0 54 56" fill="none" xmlns="http://www.w3.org/2000/svg">
<path d="M53.8958 17.3507C51.432 11.3596 46.9672 6.40809 41.2619 3.33988C35.5567 0.271662 28.964 -0.723412 22.6074 0.524199C16.2507 1.77181 10.5233 5.18492 6.40098 10.182C2.27869 15.179 0.0165768 21.4508 9.0676e-05 27.9287C-0.0163955 34.4067 2.21376 40.6899 6.31057 45.7079C10.4074 50.7258 16.1174 54.168 22.4676 55.448C28.8178 56.7279 35.4154 55.7664 41.1362 52.7273C46.857 49.6882 51.347 44.7595 53.8413 38.7809L28 28L53.8958 17.3507Z" fill="url(#paint0_linear_1_1570)"/>
<defs>
<linearGradient id="paint0_linear_1_1570" x1="55.7769" y1="24.3575" x2="0.201696" y2="24.7785" gradientUnits="userSpaceOnUse">
<stop stop-color="#7A87FB"/>
<stop offset="1" stop-color="#FFD49C"/>
</linearGradient>
</defs>
</svg>
