<svg width="52" height="36" viewBox="0 0 52 36" fill="none" xmlns="http://www.w3.org/2000/svg">
<rect width="52" height="36" rx="18" fill="#292929"/>
<g clip-path="url(#clip0_1_1726)">
<path fill-rule="evenodd" clip-rule="evenodd" d="M19.3332 18.0001C19.3333 16.7171 19.7036 15.4615 20.3997 14.3837C21.0957 13.306 22.088 12.452 23.2573 11.9243C24.4267 11.3965 25.7235 11.2173 26.9922 11.4083C28.2609 11.5993 29.4475 12.1523 30.4097 13.0009C31.3718 13.8495 32.0687 14.9578 32.4166 16.1927C32.7646 17.4275 32.7488 18.7366 32.3713 19.9627C31.9937 21.1889 31.2703 22.28 30.288 23.1052C29.3056 23.9305 28.1061 24.4547 26.8332 24.6151V19.6667H28.4998C28.7209 19.6667 28.9328 19.5789 29.0891 19.4227C29.2454 19.2664 29.3332 19.0544 29.3332 18.8334C29.3332 18.6124 29.2454 18.4004 29.0891 18.2442C28.9328 18.0879 28.7209 18.0001 28.4998 18.0001H26.8332V16.3334C26.8332 16.1124 26.921 15.9004 27.0772 15.7442C27.2335 15.5879 27.4455 15.5001 27.6665 15.5001H28.0832C28.3042 15.5001 28.5161 15.4123 28.6724 15.256C28.8287 15.0997 28.9165 14.8878 28.9165 14.6667C28.9165 14.4457 28.8287 14.2338 28.6724 14.0775C28.5161 13.9212 28.3042 13.8334 28.0832 13.8334H27.6665C27.0035 13.8334 26.3676 14.0968 25.8987 14.5656C25.4299 15.0345 25.1665 15.6704 25.1665 16.3334V18.0001H23.4998C23.2788 18.0001 23.0669 18.0879 22.9106 18.2442C22.7543 18.4004 22.6665 18.6124 22.6665 18.8334C22.6665 19.0544 22.7543 19.2664 22.9106 19.4227C23.0669 19.5789 23.2788 19.6667 23.4998 19.6667H25.1665V24.6151C23.5554 24.4119 22.0739 23.6278 20.9998 22.4099C19.9258 21.1919 19.3332 19.6239 19.3332 18.0001ZM25.9998 26.3334C30.6023 26.3334 34.3332 22.6026 34.3332 18.0001C34.3332 13.3976 30.6023 9.66675 25.9998 9.66675C21.3973 9.66675 17.6665 13.3976 17.6665 18.0001C17.6665 22.6026 21.3973 26.3334 25.9998 26.3334Z" fill="white"/>
</g>
<defs>
<clipPath id="clip0_1_1726">
<rect width="20" height="20" fill="white" transform="translate(16 8)"/>
</clipPath>
</defs>
</svg>
