<svg width="52" height="36" viewBox="0 0 52 36" fill="none" xmlns="http://www.w3.org/2000/svg">
<rect width="52" height="36" rx="18" fill="#292929"/>
<g clip-path="url(#clip0_1_1713)">
<path d="M34.3332 18.0001C34.3346 19.0977 34.1185 20.1847 33.6973 21.1984C33.2761 22.212 32.6583 23.1321 31.8794 23.9055C31.107 24.6766 30.1901 25.2879 29.1812 25.7045C28.1724 26.1211 27.0913 26.3348 25.9998 26.3334C21.3973 26.3334 17.6665 22.6026 17.6665 18.0001C17.6636 15.8633 18.4844 13.8077 19.9582 12.2605C20.7358 11.4399 21.6727 10.7866 22.7116 10.3407C23.7504 9.89468 24.8693 9.66537 25.9998 9.66676C27.0913 9.66534 28.1724 9.87904 29.1812 10.2956C30.1901 10.7122 31.107 11.3236 31.8794 12.0947C32.6583 12.8681 33.2761 13.7882 33.6973 14.8018C34.1185 15.8154 34.3346 16.9025 34.3332 18.0001Z" stroke="white" stroke-width="2" stroke-linecap="round" stroke-linejoin="round"/>
<path d="M34.3331 18C33.1173 18 29.7631 17.5416 26.761 18.8596C23.4998 20.2916 21.1385 22.5133 20.1094 23.8946" stroke="white" stroke-width="2" stroke-linecap="round" stroke-linejoin="round"/>
<path d="M22.875 10.2727C24.1792 11.4765 27.025 14.541 28.0833 17.5835C29.1417 20.626 29.5333 24.3669 29.775 25.4315" stroke="white" stroke-width="2" stroke-linecap="round" stroke-linejoin="round"/>
<path d="M17.7305 16.9583C19.3046 17.0533 23.4717 17.1387 26.1384 16C28.8051 14.8612 31.0996 12.7666 31.8867 12.1021M18.2913 21.1721C19.0256 22.9495 20.3499 24.4197 22.0413 25.335" stroke="white" stroke-width="2" stroke-linecap="round" stroke-linejoin="round"/>
<path d="M17.6665 18.0001C17.6636 15.8633 18.4844 13.8077 19.9582 12.2605C20.7358 11.4399 21.6727 10.7866 22.7116 10.3407C23.7504 9.89468 24.8693 9.66537 25.9998 9.66675M29.3332 10.3601C30.2822 10.7753 31.1456 11.3635 31.8794 12.0947C32.6583 12.8681 33.2761 13.7882 33.6973 14.8018C34.1185 15.8154 34.3346 16.9025 34.3332 18.0001C34.3332 19.0259 34.1478 20.0088 33.8082 20.9168M25.9998 26.3334C27.0913 26.3348 28.1724 26.1211 29.1812 25.7045C30.1901 25.2879 31.107 24.6766 31.8794 23.9055" stroke="white" stroke-width="2" stroke-linecap="round" stroke-linejoin="round"/>
</g>
<defs>
<clipPath id="clip0_1_1713">
<rect width="20" height="20" fill="white" transform="translate(16 8)"/>
</clipPath>
</defs>
</svg>
