<svg width="11" height="7" viewBox="0 0 11 7" fill="none" xmlns="http://www.w3.org/2000/svg">
<path d="M1.44889 0.237793H4.78223C4.95904 0.237793 5.12861 0.308031 5.25363 0.433055C5.37865 0.558079 5.44889 0.727649 5.44889 0.90446C5.44889 1.08127 5.37865 1.25084 5.25363 1.37586C5.12861 1.50089 4.95904 1.57113 4.78223 1.57113H1.44889C1.27208 1.57113 1.10251 1.50089 0.977489 1.37586C0.852464 1.25084 0.782227 1.08127 0.782227 0.90446C0.782227 0.727649 0.852464 0.558079 0.977489 0.433055C1.10251 0.308031 1.27208 0.237793 1.44889 0.237793ZM6.11556 5.57113H9.44889C9.6257 5.57113 9.79527 5.64136 9.9203 5.76639C10.0453 5.89141 10.1156 6.06098 10.1156 6.23779C10.1156 6.4146 10.0453 6.58417 9.9203 6.7092C9.79527 6.83422 9.6257 6.90446 9.44889 6.90446H6.11556C5.93875 6.90446 5.76918 6.83422 5.64416 6.7092C5.51913 6.58417 5.44889 6.4146 5.44889 6.23779C5.44889 6.06098 5.51913 5.89141 5.64416 5.76639C5.76918 5.64136 5.93875 5.57113 6.11556 5.57113ZM1.44889 2.90446H9.44889C9.6257 2.90446 9.79527 2.9747 9.9203 3.09972C10.0453 3.22475 10.1156 3.39432 10.1156 3.57113C10.1156 3.74794 10.0453 3.91751 9.9203 4.04253C9.79527 4.16755 9.6257 4.23779 9.44889 4.23779H1.44889C1.27208 4.23779 1.10251 4.16755 0.977489 4.04253C0.852464 3.91751 0.782227 3.74794 0.782227 3.57113C0.782227 3.39432 0.852464 3.22475 0.977489 3.09972C1.10251 2.9747 1.27208 2.90446 1.44889 2.90446Z" fill="white"/>
</svg>
